<svg xmlns="http://www.w3.org/2000/svg" viewBox="0 0 24 24" fill="none">
  <!-- Backblaze B2: flame shape -->
  <path d="M12 2C12 2 7 7 7 12c0 1.5.5 2.8 1.3 3.8C8 14.8 8 13.9 8.5 13c.5 1 1.5 1.7 2.5 1.9C10.4 13.8 10 12.5 10.5 11c.5 1.2 1.5 2 2.5 2.2-.3-.8-.3-1.7.2-2.5.5 1.2 1.3 2 1.3 3.3 0 .7-.2 1.3-.5 1.8.8-1 1.5-2.4 1.5-4C17 7 12 2 12 2Z" fill="#ED1C24"/>
  <path d="M12 14.5c0 1.9-1.3 3.5-3 4.2.8.5 1.8.8 2.8.8 3.3 0 6-2.7 6-6 0-1.2-.3-2.3-.9-3.2C16.4 12.8 12 13.5 12 14.5Z" fill="#ED1C24" opacity="0.7"/>
  <ellipse cx="12" cy="20" rx="4" ry="1.5" fill="#ED1C24" opacity="0.4"/>
</svg>
